<svg width="25" height="25" viewBox="0 0 25 25" fill="none" xmlns="http://www.w3.org/2000/svg">
<path d="M21.5 12.0354V19.0354C21.5 19.5658 21.2893 20.0745 20.9142 20.4496C20.5391 20.8247 20.0304 21.0354 19.5 21.0354H5.5C4.96957 21.0354 4.46086 20.8247 4.08579 20.4496C3.71071 20.0745 3.5 19.5658 3.5 19.0354V12.0354H21.5ZM16.5 3.0354C16.7652 3.0354 17.0196 3.14076 17.2071 3.32829C17.3946 3.51583 17.5 3.77018 17.5 4.0354V5.0354H19.5C20.0304 5.0354 20.5391 5.24611 20.9142 5.62119C21.2893 5.99626 21.5 6.50497 21.5 7.0354V10.0354H3.5V7.0354C3.5 6.50497 3.71071 5.99626 4.08579 5.62119C4.46086 5.24611 4.96957 5.0354 5.5 5.0354H7.5V4.0354C7.5 3.77018 7.60536 3.51583 7.79289 3.32829C7.98043 3.14076 8.23478 3.0354 8.5 3.0354C8.76522 3.0354 9.01957 3.14076 9.20711 3.32829C9.39464 3.51583 9.5 3.77018 9.5 4.0354V5.0354H15.5V4.0354C15.5 3.77018 15.6054 3.51583 15.7929 3.32829C15.9804 3.14076 16.2348 3.0354 16.5 3.0354Z" fill="#9345E1"/>
</svg>
