<svg width="24" height="24" viewBox="0 0 24 24" fill="none" xmlns="http://www.w3.org/2000/svg">
<path d="M20.9999 5L2.99992 5C2.81767 5.00057 2.63904 5.05083 2.48324 5.14538C2.32744 5.23992 2.20037 5.37517 2.11572 5.53655C2.03107 5.69794 1.99203 5.87936 2.00281 6.06128C2.01359 6.24321 2.07379 6.41874 2.17692 6.569L11.1769 19.569C11.5499 20.108 12.4479 20.108 12.8219 19.569L21.8219 6.569C21.9261 6.41906 21.9872 6.24343 21.9986 6.06121C22.0099 5.87898 21.9711 5.69712 21.8864 5.53539C21.8017 5.37367 21.6742 5.23825 21.518 5.14386C21.3617 5.04947 21.1825 4.99971 20.9999 5Z" fill="#9345E1"/>
</svg>
