<svg width="14" height="21" viewBox="0 0 14 21" fill="none" xmlns="http://www.w3.org/2000/svg">
<path fill-rule="evenodd" clip-rule="evenodd" d="M1.5792 12.0458C1.16955 11.6357 0.939453 11.0797 0.939453 10.5C0.939453 9.92029 1.16955 9.3643 1.5792 8.95414L9.82753 0.702894C10.2379 0.29272 10.7944 0.0623633 11.3746 0.0625001C11.6619 0.0625678 11.9464 0.119221 12.2118 0.229225C12.4772 0.339229 12.7183 0.500429 12.9214 0.703622C13.1245 0.906816 13.2856 1.14802 13.3954 1.41347C13.5053 1.67892 13.5618 1.96341 13.5618 2.2507C13.5617 2.53799 13.5051 2.82246 13.3951 3.08785C13.285 3.35325 13.1238 3.59438 12.9207 3.79748L6.21961 10.5L12.9221 17.2025C13.1311 17.4042 13.2979 17.6455 13.4127 17.9123C13.5274 18.1791 13.5879 18.4661 13.5906 18.7566C13.5932 19.047 13.538 19.3351 13.4282 19.604C13.3183 19.8729 13.156 20.1172 12.9507 20.3227C12.7454 20.5282 12.5012 20.6907 12.2324 20.8008C11.9637 20.911 11.6756 20.9664 11.3852 20.9641C11.0947 20.9617 10.8077 20.9015 10.5407 20.7869C10.2738 20.6724 10.0323 20.5059 9.83044 20.2971L1.57628 12.0458H1.5792Z" fill="black"/>
</svg>
