<svg width="35" height="35" viewBox="0 0 35 35" fill="none" xmlns="http://www.w3.org/2000/svg">
<path d="M27.7084 18.9583C28.2042 18.9583 28.6855 19.0166 29.1667 19.0895V14.5833C29.1667 13.8097 28.8594 13.0678 28.3124 12.5209C27.7655 11.9739 27.0236 11.6666 26.25 11.6666H24.7917V8.74992C24.7917 4.72492 21.525 1.45825 17.5 1.45825C13.475 1.45825 10.2084 4.72492 10.2084 8.74992V11.6666H8.75004C7.97649 11.6666 7.23463 11.9739 6.68765 12.5209C6.14066 13.0678 5.83337 13.8097 5.83337 14.5833V29.1666C5.83337 30.7853 7.13129 32.0833 8.75004 32.0833H20.1396C19.3959 30.7999 18.9584 29.3124 18.9584 27.7083C18.9584 22.8812 22.8813 18.9583 27.7084 18.9583ZM13.125 8.74992C13.125 6.32909 15.0792 4.37492 17.5 4.37492C19.9209 4.37492 21.875 6.32909 21.875 8.74992V11.6666H13.125V8.74992ZM17.5 24.7916C16.9232 24.7916 16.3593 24.6205 15.8796 24.3C15.4 23.9796 15.0261 23.524 14.8054 22.9911C14.5846 22.4581 14.5269 21.8717 14.6394 21.3059C14.752 20.7401 15.0297 20.2204 15.4376 19.8125C15.8455 19.4046 16.3652 19.1268 16.931 19.0143C17.4968 18.9018 18.0832 18.9595 18.6162 19.1803C19.1492 19.401 19.6047 19.7749 19.9252 20.2545C20.2456 20.7341 20.4167 21.2981 20.4167 21.8749C20.4167 23.4937 19.1188 24.7916 17.5 24.7916ZM32.8125 25.1562L25.8855 32.0833L21.875 27.7083L23.5667 26.0166L25.8855 28.3353L31.1209 23.0999L32.8125 25.1562Z" fill="#9345E1"/>
</svg>
