<svg width="35" height="35" viewBox="0 0 35 35" fill="none" xmlns="http://www.w3.org/2000/svg">
<path d="M17.5 24.7916C18.2736 24.7916 19.0155 24.4843 19.5624 23.9373C20.1094 23.3903 20.4167 22.6485 20.4167 21.8749C20.4167 21.1014 20.1094 20.3595 19.5624 19.8125C19.0155 19.2655 18.2736 18.9583 17.5 18.9583C16.7265 18.9583 15.9846 19.2655 15.4376 19.8125C14.8907 20.3595 14.5834 21.1014 14.5834 21.8749C14.5834 22.6485 14.8907 23.3903 15.4376 23.9373C15.9846 24.4843 16.7265 24.7916 17.5 24.7916ZM26.25 11.6666C27.0236 11.6666 27.7655 11.9739 28.3124 12.5209C28.8594 13.0678 29.1667 13.8097 29.1667 14.5833V29.1666C29.1667 29.9401 28.8594 30.682 28.3124 31.229C27.7655 31.776 27.0236 32.0833 26.25 32.0833H8.75004C7.97649 32.0833 7.23463 31.776 6.68765 31.229C6.14066 30.682 5.83337 29.9401 5.83337 29.1666V14.5833C5.83337 13.8097 6.14066 13.0678 6.68765 12.5209C7.23463 11.9739 7.97649 11.6666 8.75004 11.6666H10.2084V8.74992C10.2084 6.81605 10.9766 4.96138 12.3441 3.59393C13.7115 2.22648 15.5662 1.45825 17.5 1.45825C18.4576 1.45825 19.4058 1.64686 20.2904 2.0133C21.1751 2.37974 21.9789 2.91684 22.656 3.59393C23.3331 4.27103 23.8702 5.07485 24.2367 5.95952C24.6031 6.84418 24.7917 7.79236 24.7917 8.74992V11.6666H26.25ZM17.5 4.37492C16.3397 4.37492 15.2269 4.83586 14.4064 5.65633C13.586 6.4768 13.125 7.5896 13.125 8.74992V11.6666H21.875V8.74992C21.875 7.5896 21.4141 6.4768 20.5936 5.65633C19.7732 4.83586 18.6604 4.37492 17.5 4.37492Z" fill="#9345E1"/>
</svg>
