<svg width="37" height="36" viewBox="0 0 37 36" fill="none" xmlns="http://www.w3.org/2000/svg">
<path d="M35.5655 16.2713L28.3612 22.5587L30.5193 31.9196C30.6335 32.409 30.6009 32.9212 30.4256 33.3921C30.2503 33.8631 29.9401 34.2719 29.5337 34.5675C29.1273 34.863 28.6428 35.0323 28.1407 35.054C27.6387 35.0757 27.1414 34.949 26.711 34.6896L18.5466 29.7376L10.3997 34.6896C9.96933 34.949 9.47203 35.0757 8.96999 35.054C8.46795 35.0323 7.98345 34.863 7.57707 34.5675C7.17069 34.2719 6.86045 33.8631 6.68515 33.3921C6.50985 32.9212 6.47727 32.409 6.59147 31.9196L8.74639 22.5683L1.54041 16.2713C1.15928 15.9426 0.883685 15.5086 0.748181 15.0239C0.612678 14.5392 0.623301 14.0253 0.778718 13.5466C0.934135 13.0679 1.22743 12.6457 1.62182 12.333C2.0162 12.0203 2.49413 11.8311 2.99567 11.7889L12.4939 10.9662L16.2016 2.12291C16.3952 1.65888 16.7218 1.26251 17.1402 0.983716C17.5586 0.704917 18.0502 0.556152 18.553 0.556152C19.0558 0.556152 19.5473 0.704917 19.9658 0.983716C20.3842 1.26251 20.7108 1.65888 20.9044 2.12291L24.6232 10.9662L34.1183 11.7889C34.6198 11.8311 35.0977 12.0203 35.4921 12.333C35.8865 12.6457 36.1798 13.0679 36.3352 13.5466C36.4906 14.0253 36.5013 14.5392 36.3658 15.0239C36.2302 15.5086 35.9547 15.9426 35.5735 16.2713H35.5655Z" fill="#D4D4D4"/>
</svg>
