<svg width="36" height="36" viewBox="0 0 36 36" fill="none" xmlns="http://www.w3.org/2000/svg">
<path d="M35.0392 16.2713L27.8348 22.5587L29.9929 31.9196C30.1071 32.409 30.0745 32.9212 29.8992 33.3921C29.7239 33.8631 29.4137 34.2719 29.0073 34.5675C28.6009 34.863 28.1164 35.0323 27.6144 35.054C27.1123 35.0757 26.615 34.949 26.1846 34.6896L18.0202 29.7376L9.87336 34.6896C9.44296 34.949 8.94566 35.0757 8.44362 35.054C7.94158 35.0323 7.45708 34.863 7.0507 34.5675C6.64432 34.2719 6.33408 33.8631 6.15878 33.3921C5.98349 32.9212 5.9509 32.409 6.0651 31.9196L8.22002 22.5683L1.01405 16.2713C0.632916 15.9426 0.357318 15.5086 0.221814 15.0239C0.0863108 14.5392 0.0969337 14.0253 0.252351 13.5466C0.407768 13.0679 0.70106 12.6457 1.09545 12.333C1.48984 12.0203 1.96777 11.8311 2.4693 11.7889L11.9676 10.9662L15.6752 2.12291C15.8688 1.65888 16.1954 1.26251 16.6138 0.983716C17.0322 0.704917 17.5238 0.556152 18.0266 0.556152C18.5294 0.556152 19.021 0.704917 19.4394 0.983716C19.8578 1.26251 20.1844 1.65888 20.378 2.12291L24.0968 10.9662L33.5919 11.7889C34.0934 11.8311 34.5714 12.0203 34.9658 12.333C35.3601 12.6457 35.6534 13.0679 35.8088 13.5466C35.9643 14.0253 35.9749 14.5392 35.8394 15.0239C35.7039 15.5086 35.4283 15.9426 35.0472 16.2713H35.0392Z" fill="#FFD233"/>
</svg>
