<svg width="80" height="81" viewBox="0 0 80 81" fill="none" xmlns="http://www.w3.org/2000/svg">
<circle cx="40" cy="40.6069" r="40" fill="#9345E1"/>
<path d="M51.4285 41.9952H42.271V51.1527C42.271 51.6385 42.0781 52.1043 41.7346 52.4478C41.3911 52.7913 40.9253 52.9842 40.4395 52.9842C39.9538 52.9842 39.4879 52.7913 39.1445 52.4478C38.801 52.1043 38.608 51.6385 38.608 51.1527V41.9952H29.4505C28.9648 41.9952 28.4989 41.8023 28.1555 41.4588C27.812 41.1153 27.619 40.6495 27.619 40.1637C27.619 39.678 27.812 39.2121 28.1555 38.8686C28.4989 38.5252 28.9648 38.3322 29.4505 38.3322H38.608V29.1747C38.608 28.689 38.801 28.2231 39.1445 27.8796C39.4879 27.5362 39.9538 27.3432 40.4395 27.3432C40.9253 27.3432 41.3911 27.5362 41.7346 27.8796C42.0781 28.2231 42.271 28.689 42.271 29.1747V38.3322H51.4285C51.9143 38.3322 52.3801 38.5252 52.7236 38.8686C53.0671 39.2121 53.26 39.678 53.26 40.1637C53.26 40.6495 53.0671 41.1153 52.7236 41.4588C52.3801 41.8023 51.9143 41.9952 51.4285 41.9952Z" fill="white"/>
</svg>
