<svg width="14" height="21" viewBox="0 0 14 21" fill="none" xmlns="http://www.w3.org/2000/svg">
<path fill-rule="evenodd" clip-rule="evenodd" d="M12.4208 8.95419C12.8305 9.36435 13.0605 9.92033 13.0605 10.5C13.0605 11.0797 12.8305 11.6357 12.4208 12.0459L4.17247 20.2971C3.76211 20.7073 3.2056 20.9376 2.62539 20.9375C2.3381 20.9374 2.05364 20.8808 1.78824 20.7708C1.52285 20.6608 1.28172 20.4996 1.07862 20.2964C0.875521 20.0932 0.714434 19.852 0.604555 19.5865C0.494676 19.3211 0.438156 19.0366 0.438224 18.7493C0.438292 18.462 0.494946 18.1775 0.60495 17.9121C0.714954 17.6468 0.876154 17.4056 1.07935 17.2025L7.78039 10.5L1.07789 3.79752C0.868868 3.59583 0.702107 3.35453 0.587339 3.0877C0.47257 2.82087 0.412094 2.53386 0.409433 2.2434C0.406773 1.95295 0.461985 1.66488 0.571849 1.39599C0.681711 1.1271 0.844023 0.88279 1.04932 0.677304C1.25461 0.471818 1.49877 0.309276 1.76755 0.199159C2.03633 0.0890436 2.32436 0.0335608 2.61481 0.0359469C2.90527 0.038333 3.19234 0.0985385 3.45927 0.213056C3.72621 0.327573 3.96767 0.494105 4.16956 0.702937L12.4237 8.95419L12.4208 8.95419Z" fill="black"/>
</svg>
