<svg width="44" height="43" viewBox="0 0 44 43" fill="none" xmlns="http://www.w3.org/2000/svg">
<path d="M42.8008 19.5893L33.9922 27.2768L36.6309 38.7221C36.7705 39.3205 36.7307 39.9467 36.5164 40.5225C36.302 41.0983 35.9227 41.5981 35.4258 41.9595C34.929 42.3209 34.3366 42.5279 33.7228 42.5544C33.1089 42.581 32.5009 42.426 31.9747 42.1089L21.9922 36.0542L12.0313 42.1089C11.5051 42.426 10.897 42.581 10.2832 42.5544C9.66936 42.5279 9.07698 42.3209 8.58011 41.9595C8.08324 41.5981 7.70392 41.0983 7.48959 40.5225C7.27526 39.9467 7.23541 39.3205 7.37504 38.7221L10.0098 27.2886L1.19926 19.5893C0.733263 19.1874 0.396298 18.6569 0.230621 18.0642C0.0649451 17.4716 0.0779334 16.8432 0.267957 16.2579C0.457981 15.6726 0.816582 15.1564 1.29879 14.7741C1.781 14.3918 2.36535 14.1604 2.97856 14.1089L14.5918 13.103L19.125 2.2905C19.3618 1.72315 19.7611 1.23853 20.2727 0.897648C20.7843 0.556769 21.3853 0.374878 22 0.374878C22.6148 0.374878 23.2158 0.556769 23.7274 0.897648C24.239 1.23853 24.6383 1.72315 24.875 2.2905L29.4219 13.103L41.0313 14.1089C41.6445 14.1604 42.2289 14.3918 42.7111 14.7741C43.1933 15.1564 43.5519 15.6726 43.7419 16.2579C43.9319 16.8432 43.9449 17.4716 43.7792 18.0642C43.6136 18.6569 43.2766 19.1874 42.8106 19.5893H42.8008Z" fill="#FFD233"/>
</svg>
