<svg width="22" height="23" viewBox="0 0 22 23" fill="none" xmlns="http://www.w3.org/2000/svg">
<path d="M20.1524 10.2941L16.2766 13.6766L17.4376 18.7126C17.4991 18.9758 17.4815 19.2514 17.3872 19.5047C17.2929 19.7581 17.126 19.978 16.9074 20.137C16.6888 20.2961 16.4281 20.3871 16.158 20.3988C15.8879 20.4105 15.6204 20.3423 15.3889 20.2027L10.9966 17.5387L6.61379 20.2027C6.38225 20.3423 6.11472 20.4105 5.84463 20.3988C5.57454 20.3871 5.3139 20.2961 5.09527 20.137C4.87665 19.978 4.70975 19.7581 4.61544 19.5047C4.52114 19.2514 4.50361 18.9758 4.56504 18.7126L5.72434 13.6818L1.8477 10.2941C1.64266 10.1173 1.4944 9.88386 1.4215 9.6231C1.3486 9.36233 1.35432 9.08584 1.43793 8.82831C1.52154 8.57078 1.67932 8.34367 1.89149 8.17545C2.10366 8.00724 2.36078 7.90541 2.63059 7.88274L7.74043 7.44016L9.73504 2.68266C9.8392 2.43302 10.0149 2.21979 10.24 2.0698C10.4651 1.91981 10.7295 1.83978 11 1.83978C11.2705 1.83978 11.535 1.91981 11.7601 2.0698C11.9852 2.21979 12.1609 2.43302 12.265 2.68266L14.2657 7.44016L19.3738 7.88274C19.6436 7.90541 19.9007 8.00724 20.1129 8.17545C20.3251 8.34367 20.4828 8.57078 20.5665 8.82831C20.6501 9.08584 20.6558 9.36233 20.5829 9.6231C20.51 9.88386 20.3617 10.1173 20.1567 10.2941H20.1524Z" fill="#FFAA47"/>
</svg>
