<svg width="35" height="36" viewBox="0 0 35 36" fill="none" xmlns="http://www.w3.org/2000/svg">
<path d="M17.5 6.33325C19.0471 6.33325 20.5309 6.94783 21.6248 8.0418C22.7188 9.13576 23.3334 10.6195 23.3334 12.1666C23.3334 13.7137 22.7188 15.1974 21.6248 16.2914C20.5309 17.3853 19.0471 17.9999 17.5 17.9999C15.9529 17.9999 14.4692 17.3853 13.3753 16.2914C12.2813 15.1974 11.6667 13.7137 11.6667 12.1666C11.6667 10.6195 12.2813 9.13576 13.3753 8.0418C14.4692 6.94783 15.9529 6.33325 17.5 6.33325ZM17.5 20.9166C23.9459 20.9166 29.1667 23.527 29.1667 26.7499V29.6666H5.83337V26.7499C5.83337 23.527 11.0542 20.9166 17.5 20.9166Z" fill="#9345E1"/>
</svg>
